<?xml version="1.0" standalone="no"?>
<!DOCTYPE svg PUBLIC "-//W3C//DTD SVG 20010904//EN"
 "http://www.w3.org/TR/2001/REC-SVG-20010904/DTD/svg10.dtd">
<svg version="1.0" xmlns="http://www.w3.org/2000/svg"
 width="756.000000pt" height="726.000000pt" viewBox="0 0 756.000000 726.000000"
 preserveAspectRatio="xMidYMid meet">

<g transform="translate(0.000000,726.000000) scale(0.100000,-0.100000)"
fill="#000000" stroke="none">
<path d="M1208 6012 c-62 -38 -58 148 -58 -2462 0 -2585 -4 -2415 52 -2454 20
-14 265 -16 2436 -16 l2414 0 34 34 34 34 0 2406 0 2405 -35 36 -36 35 -2407
0 c-2249 -1 -2409 -2 -2434 -18z m4691 -206 c8 -10 10 -608 9 -2262 l-3 -2249
-2265 0 -2265 0 -3 2254 c-2 1797 0 2256 10 2263 7 4 1024 8 2259 8 1878 0
2248 -2 2258 -14z"/>
<path d="M2456 4713 c-55 -2 -106 -9 -113 -15 -11 -8 -13 -230 -13 -1183 0
-646 3 -1180 6 -1189 5 -14 28 -16 150 -16 l144 0 0 433 c0 237 4 437 8 443 4
7 80 13 217 17 239 7 339 24 488 83 186 75 303 177 379 334 26 52 50 111 54
130 3 19 12 38 18 42 15 10 15 346 0 356 -6 4 -21 39 -33 79 -47 145 -137 262
-267 345 -205 131 -423 161 -1038 141z m706 -266 c228 -79 333 -232 333 -482
0 -310 -167 -484 -506 -526 -116 -14 -338 -6 -350 13 -5 7 -9 237 -9 510 0
463 1 498 18 508 11 7 91 9 227 7 198 -3 214 -4 287 -30z"/>
<path d="M4929 4075 c-76 -15 -186 -57 -244 -93 -22 -14 -70 -51 -106 -83 -37
-33 -71 -59 -77 -59 -6 0 -13 35 -17 78 -4 42 -13 92 -21 110 l-13 33 -127 -3
-127 -3 2 -849 c1 -478 7 -859 12 -873 9 -23 9 -24 151 -21 l143 3 3 624 2
623 59 58 c100 97 281 170 424 170 29 0 58 5 65 12 8 8 12 53 12 138 0 85 -4
130 -12 138 -15 15 -43 14 -129 -3z"/>
</g>
</svg>
